<svg height="23.685" viewBox="0 0 218.588 23.685" width="218.588" xmlns="http://www.w3.org/2000/svg"><g fill="#fff"><path d="m55.031 91.77c-1.184 0-2.906-1.077-3.838-1.759l-2.369 3.732a10.734 10.734 0 0 0 6.171 2.548c3.983 0 7.645-2.476 7.645-6.748 0-7.1-9.009-7.212-9.009-10.657a1.984 1.984 0 0 1 2.009-1.9 5.308 5.308 0 0 1 3.66 1.685l2.978-2.655a9.153 9.153 0 0 0 -6.818-3.41c-3.876 0-7.069 2.369-7.069 6.423 0 6.532 8.971 7.715 8.971 10.478a2.167 2.167 0 0 1 -2.331 2.263z" transform="translate(-48.392 -72.606)"/><path d="m64.517 86.136h5.1v9.438h5.343v-22.607h-5.347v8.54h-5.1v-8.54h-5.342v22.607h5.346z" transform="translate(-43.073 -72.428)"/><path d="m34.85.539h5.311v22.607h-5.311z"/><path d="m82.614 87.679 5.778 7.895h4.485v-2.4l-4.736-6.137a7.088 7.088 0 0 0 4.377-6.637c0-5.635-4.377-7.429-9.33-7.429h-5.921v22.603h5.347zm0-10.226h1.4c2.08 0 3.086.789 3.086 2.9 0 1.939-1.113 3.517-3.157 3.517a5.805 5.805 0 0 1 -1.329-.251z" transform="translate(-34.143 -72.428)"/><path d="m117.279 90.91h-8.145v-4.738h5.955v-4.665h-5.955v-3.947h7.75v-4.593h-13.1v22.607h13.493z" transform="translate(-21.057 -72.428)"/><path d="m127.792 90.91h-8.145v-4.738h5.953v-4.665h-5.956v-3.947h7.756v-4.593h-13.1v22.607h13.492z" transform="translate(-15.868 -72.428)"/><path d="m100.891 72.967c-.351 1.165-.832 2.019-2.112 2.019s-1.759-.854-2.112-2.019h-7.942v8.823h3.644l-.034 13.783h12.98v-13.783h3.685v-8.823zm5.736 6.455h-3.681v13.783h-8.237l.034-13.783h-3.65v-4.086h4.041a4.3 4.3 0 0 0 7.29 0h4.2z" transform="translate(-28.489 -72.428)"/><path d="m126.565 87.628a2.756 2.756 0 0 1 2.827-2.609 2.569 2.569 0 0 1 2.672 2.454 2.774 2.774 0 0 1 -2.827 2.608 2.588 2.588 0 0 1 -2.672-2.453z" transform="translate(-9.815 -66.48)"/><path d="m143.072 74.437a8.375 8.375 0 0 0 -6.565 2.667 10.545 10.545 0 0 0 -2.4 7.308q0 4.745 2.258 7.369a8.063 8.063 0 0 0 6.459 2.624 17.437 17.437 0 0 0 5.124-.714v1.365a16.722 16.722 0 0 1 -5.489.774 9.335 9.335 0 0 1 -7.352-3.018q-2.684-3.015-2.684-8.429a13.213 13.213 0 0 1 1.281-5.957 9.27 9.27 0 0 1 3.684-3.982 10.889 10.889 0 0 1 5.586-1.4 13.429 13.429 0 0 1 5.808 1.213l-.621 1.395a11.261 11.261 0 0 0 -5.089-1.215z" transform="translate(-6.922 -72.391)"/><path d="m145.094 95.421v-22.166h1.546v20.71h10.568v1.456z" transform="translate(-.671 -72.286)"/><path d="m173.747 84.422q0 5.278-2.637 8.347a10.142 10.142 0 0 1 -14.541 0q-2.637-3.071-2.637-8.377t2.66-8.331a9.163 9.163 0 0 1 7.27-3.041 9.059 9.059 0 0 1 7.261 3.056q2.624 3.056 2.624 8.346zm-18.132 0q0 4.76 2.121 7.361a8.5 8.5 0 0 0 12.214.024q2.115-2.578 2.115-7.385 0-4.79-2.115-7.345a8.52 8.52 0 0 0 -12.19.022q-2.146 2.579-2.145 7.323z" transform="translate(3.69 -72.401)"/><path d="m185.955 73.255v14.345a7.949 7.949 0 0 1 -2.213 5.974 8.478 8.478 0 0 1 -6.171 2.154 7.494 7.494 0 0 1 -8.172-8.189v-14.284h1.562v14.345a6.18 6.18 0 0 0 6.792 6.762 6.066 6.066 0 0 0 6.656-6.61v-14.497z" transform="translate(11.322 -72.286)"/><path d="m200.315 84.125q0 5.58-2.927 8.438t-8.6 2.859h-5.306v-22.167h5.989q5.307 0 8.074 2.775t2.77 8.095zm-1.683.061q0-4.76-2.418-7.164t-7.1-2.4h-4.079v19.434h3.665q9.93 0 9.932-9.87z" transform="translate(18.274 -72.286)"/></g></svg>